{"title":"Ghost.Lab.S02E10.Path.Of.A.Killer.WS.DSR.XviD.TVrip-[NY2].avi","uid":6067466,"size":367650036,"categoryP":"video","categoryS":"tv_shows","magnet":"?xt=urn:btih:e0226208a1e5a46a59d886e8dde3c0ceb2cb46bc&amp;dn=Ghost.Lab.S02E10.Path.Of.A.Killer.WS.DSR.XviD.TVrip-%5BNY2%5D.avi&amp;tr=udp%3A%2F%2Ftracker.openbittorrent.com%3A80&amp;tr=udp%3A%2F%2Fopen.demonii.com%3A1337&amp;tr=udp%3A%2F%2Ftracker.coppersurfer.tk%3A6969&amp;tr=udp%3A%2F%2Fexodus.desync.com%3A6969","seeders":1,"leechers":0,"uploader":"trialNerror","files":1,"time":1293410511,"description":"Huge thanks to DSR and ponku!\n\n\nFormat                           : AVI\nFormat/Info                      : Audio Video Interleave\nFile size                        : 351 MiB\nDuration                         : 43mn 8s\nOverall bit rate                 : 1 136 Kbps\nWriting application              : MEncoder Sherpya-SVN-r30818-4.2.4\nWriting library                  : MPlayer\n\nVideo\nID                               : 0\nFormat                           : MPEG-4 Visual\nFormat profile                   : Simple@L3\nFormat settings, BVOP            : No\nFormat settings, QPel            : No\nFormat settings, GMC             : No warppoints\nFormat settings, Matrix          : Default (H.263)\nCodec ID                         : XVID\nCodec ID/Hint                    : XviD\nDuration                         : 43mn 8s\nBit rate                         : 994 Kbps\nWidth                            : 512 pixels\nHeight                           : 288 pixels\nDisplay aspect ratio             : 16:9\nFrame rate                       : 29.970 fps\nColor space                      : YUV\nChroma subsampling               : 4:2:0\nBit depth                        : 8 bits\nScan type                        : Progressive\nBits/(Pixel*Frame)               : 0.225\nStream size                      : 307 MiB (87%)\nWriting library                  : XviD 1.2.1 (UTC 2008-12-04)\n\nAudio\nID                               : 1\nFormat                           : MPEG Audio\nFormat version                   : Version 1\nFormat profile                   : Layer 3\nMode                             : Joint stereo\nMode extension                   : MS Stereo\nCodec ID                         : 55\nCodec ID/Hint                    : MP3\nDuration                         : 43mn 6s\nBit rate mode                    : Variable\nBit rate                         : 128 Kbps\nChannel(s)                       : 2 channels\nSampling rate                    : 48.0 KHz\nStream size                      : 39.6 MiB (11%)\nAlignment                        : Aligned on interleaves\nInterleave, duration             : 24 ms (0.72 video frame)\nWriting library                  : LAME3.98.2\n\n","torrent":{"xt":"urn:btih:e0226208a1e5a46a59d886e8dde3c0ceb2cb46bc","amp;dn":"Ghost.Lab.S02E10.Path.Of.A.Killer.WS.DSR.XviD.TVrip-%5BNY2%5D.avi","amp;tr":["udp%3A%2F%2Ftracker.openbittorrent.com%3A80","udp%3A%2F%2Fopen.demonii.com%3A1337","udp%3A%2F%2Ftracker.coppersurfer.tk%3A6969","udp%3A%2F%2Fexodus.desync.com%3A6969"],"infoHash":"e0226208a1e5a46a59d886e8dde3c0ceb2cb46bc","infoHashBuffer":{"type":"Buffer","data":[224,34,98,8,161,229,164,106,89,216,134,232,221,227,192,206,178,203,70,188]},"announce":[],"urlList":[]}}